<?xml version="1.0" standalone="no"?>
<!DOCTYPE svg PUBLIC "-//W3C//DTD SVG 20010904//EN"
 "http://www.w3.org/TR/2001/REC-SVG-20010904/DTD/svg10.dtd">
<svg version="1.0" xmlns="http://www.w3.org/2000/svg"
 width="512.000000pt" height="512.000000pt" viewBox="0 0 512.000000 512.000000"
 preserveAspectRatio="xMidYMid meet">
<metadata>
Created by potrace 1.11, written by Peter Selinger 2001-2013
</metadata>
<g transform="translate(0.000000,512.000000) scale(0.100000,-0.100000)"
fill="#000000" stroke="none">
<path d="M2807 4790 c4 -16 1 -18 -20 -14 -18 3 -27 -1 -30 -13 -4 -17 -5 -17
-6 0 -1 18 -26 23 -36 7 -4 -6 -11 -8 -16 -5 -8 5 -13 -7 -10 -27 1 -12 -60
24 -66 38 -3 8 -9 12 -14 9 -4 -3 -5 -13 -2 -21 3 -9 0 -20 -8 -24 -17 -11
-15 -100 3 -112 10 -6 10 -8 0 -8 -9 0 -10 -5 -2 -19 5 -11 10 -31 10 -45 0
-13 6 -27 13 -29 10 -4 10 -6 0 -6 -8 -1 -13 -15 -13 -37 0 -28 -3 -35 -15
-30 -8 3 -15 1 -15 -5 0 -6 -5 -7 -12 -3 -7 5 -8 3 -2 -7 9 -14 14 -34 16 -56
1 -7 5 -13 10 -13 5 0 4 -9 -2 -20 -8 -15 -8 -20 1 -20 7 0 9 -9 5 -27 -5 -17
-3 -29 6 -34 10 -7 10 -9 0 -9 -10 0 -9 -7 3 -30 18 -35 19 -44 3 -34 -8 5 -8
1 1 -10 8 -9 16 -29 17 -43 2 -14 8 -31 13 -36 6 -6 11 -24 11 -40 0 -18 4
-26 11 -21 8 4 9 0 4 -15 -3 -11 -2 -21 3 -21 5 0 8 -23 8 -51 -1 -28 2 -53 6
-55 5 -3 4 -13 -1 -22 -6 -11 -5 -24 1 -36 8 -14 8 -17 -2 -11 -9 6 -9 3 -1
-12 6 -11 7 -24 3 -27 -10 -11 -8 -40 3 -49 6 -6 6 -10 -2 -14 -9 -3 -10 -10
-4 -21 5 -10 8 -39 8 -65 -1 -26 1 -47 5 -47 4 0 3 -11 -2 -25 -8 -21 -7 -25
8 -25 10 0 13 -3 6 -8 -9 -6 -12 -66 -4 -82 6 -13 4 -36 -5 -42 -6 -5 -5 -8 3
-8 7 0 10 -4 7 -10 -3 -5 -2 -10 4 -10 6 0 7 -7 4 -17 -5 -12 -3 -14 8 -9 11
6 10 4 -1 -6 -15 -13 -20 -42 -9 -53 4 -3 5 -23 3 -45 -2 -22 1 -40 7 -40 5 0
8 -19 6 -45 -2 -25 -1 -45 2 -45 3 0 6 -15 5 -32 0 -18 2 -37 5 -43 7 -12 8
-18 10 -44 1 -14 7 -18 24 -14 18 4 19 3 7 -6 -12 -9 -12 -11 -1 -11 11 0 10
-5 -4 -20 -21 -23 -28 -63 -11 -57 6 2 10 14 9 26 -2 13 3 21 12 21 8 0 15 -5
15 -11 0 -5 5 -7 10 -4 6 3 10 1 10 -5 0 -6 5 -8 11 -4 8 4 8 0 0 -15 -16 -28
-45 -43 -59 -29 -8 8 -9 1 -5 -23 4 -19 7 -45 7 -59 1 -27 24 -52 43 -45 6 2
10 -4 8 -13 -2 -9 -4 -21 -4 -25 -1 -5 -5 -6 -9 -3 -4 2 -13 -4 -20 -15 -7
-10 -8 -19 -3 -19 5 0 7 -9 4 -20 -4 -15 1 -21 23 -26 16 -4 37 -7 47 -6 14 1
15 -3 6 -20 -7 -12 -14 -16 -18 -10 -12 20 -36 -12 -36 -50 0 -41 4 -45 23
-26 7 7 12 9 12 5 0 -3 -10 -16 -22 -28 -16 -15 -19 -23 -10 -26 6 -3 10 -9 6
-14 -5 -8 10 -13 19 -6 2 1 11 -4 20 -12 14 -11 17 -11 17 -1 0 8 3 11 6 7 4
-3 4 -13 0 -22 -4 -12 -10 -14 -25 -5 -16 8 -22 6 -31 -9 -6 -12 -6 -22 -1
-26 6 -3 8 -14 6 -25 -2 -11 0 -22 5 -25 4 -3 8 -21 8 -40 0 -36 24 -85 42
-85 6 0 6 -9 0 -25 -5 -14 -7 -25 -4 -25 4 0 2 -6 -4 -12 -12 -16 -13 -88 -1
-88 5 0 9 7 9 16 0 9 5 12 12 8 8 -5 4 -13 -11 -26 -13 -10 -18 -18 -12 -18 6
0 11 -16 11 -35 0 -21 5 -35 12 -35 7 0 8 -3 3 -8 -14 -12 -115 -35 -122 -29
-3 4 -12 -1 -20 -9 -8 -8 -18 -12 -23 -9 -5 3 -11 1 -15 -4 -3 -6 -12 -8 -20
-5 -8 4 -17 -1 -21 -9 -3 -9 -12 -13 -19 -11 -8 3 -21 -3 -31 -14 -10 -12 -24
-18 -36 -14 -12 3 -25 -3 -35 -17 -8 -12 -21 -20 -29 -17 -7 3 -18 -3 -23 -12
-6 -9 -11 -13 -11 -8 0 5 -7 3 -15 -4 -13 -11 -13 -15 -3 -22 9 -6 5 -7 -10
-3 -13 4 -32 1 -45 -7 -12 -8 -29 -14 -37 -13 -17 0 -40 -17 -34 -26 2 -3 -2
-6 -9 -7 -32 -2 -63 -13 -72 -25 -5 -8 -18 -13 -28 -11 -9 1 -15 -2 -12 -6 6
-9 -13 -24 -30 -25 -5 -1 -9 -6 -8 -13 2 -6 -4 -9 -12 -6 -9 4 -15 0 -15 -9 0
-9 -5 -19 -12 -23 -7 -4 -8 -3 -4 4 4 7 1 12 -9 12 -8 0 -18 -6 -21 -14 -3 -9
-12 -12 -21 -9 -11 4 -14 2 -9 -5 5 -8 2 -10 -8 -6 -9 3 -16 1 -16 -5 0 -6 -7
-11 -15 -11 -9 0 -15 -9 -15 -24 0 -14 -5 -28 -12 -32 -7 -4 -8 -3 -4 4 4 7 2
12 -3 12 -6 0 -11 -4 -11 -8 0 -4 -9 -8 -20 -9 -13 -1 -18 2 -14 9 4 7 2 8 -4
4 -7 -4 -12 -14 -12 -22 0 -8 -10 -14 -26 -14 -21 0 -25 -4 -21 -19 3 -12 -1
-22 -10 -25 -8 -3 -11 -11 -7 -17 5 -8 3 -9 -7 -3 -22 14 -39 13 -39 -1 0 -7
-6 -16 -12 -18 -10 -4 -10 -6 -1 -6 6 -1 15 4 18 9 10 16 25 12 19 -5 -4 -8
-15 -15 -26 -15 -10 0 -16 -4 -13 -10 3 -5 -1 -20 -9 -32 l-15 -22 -10 25 c-9
23 -10 23 -10 2 -1 -12 7 -27 17 -32 10 -6 12 -11 4 -11 -7 0 -10 -5 -6 -12 4
-7 3 -8 -5 -4 -6 4 -14 0 -17 -9 -5 -12 -14 -15 -33 -10 -14 4 -23 3 -19 -1 4
-3 3 -15 -3 -25 -6 -13 -6 -19 1 -19 5 0 10 8 10 17 0 13 3 14 12 5 19 -19
-15 -50 -36 -33 -12 10 -14 9 -9 -8 3 -13 10 -18 21 -14 9 4 13 2 9 -4 -4 -6
-1 -14 5 -16 7 -3 3 -6 -9 -6 -13 -1 -23 -4 -24 -8 -1 -16 -10 -89 -12 -105
-2 -9 -9 -24 -17 -34 -13 -15 -13 -16 -1 -9 11 6 13 4 8 -9 -4 -10 -7 -19 -7
-22 0 -2 -8 -1 -17 2 -14 4 -13 2 2 -7 11 -6 21 -13 23 -14 1 -1 5 -13 7 -25
3 -13 10 -27 17 -32 7 -4 8 -8 2 -8 -5 0 -15 5 -21 11 -7 7 -12 6 -16 -5 -4
-9 -3 -15 1 -15 18 3 32 -2 32 -11 0 -5 -8 -7 -17 -4 -17 5 -17 5 0 -9 20 -17
23 -37 5 -37 -10 0 -10 -2 0 -9 7 -4 12 -12 10 -17 -1 -5 9 -22 24 -37 18 -19
24 -35 20 -49 -3 -12 -1 -19 4 -15 5 3 10 -3 10 -13 0 -10 -3 -17 -7 -14 -4 2
-9 -6 -11 -18 -2 -13 -8 -22 -14 -21 -5 1 -10 -9 -10 -23 0 -27 6 -30 25 -11
11 10 12 9 6 -1 -4 -8 -2 -13 6 -11 32 4 60 -2 54 -11 -3 -6 -1 -10 4 -10 6 0
11 -7 11 -16 0 -12 -7 -15 -25 -12 -14 3 -25 0 -26 -6 0 -6 -2 -21 -5 -33 -5
-28 12 -39 33 -21 10 8 14 8 10 1 -4 -6 -2 -15 4 -19 7 -4 9 -3 6 3 -10 16 16
34 33 23 10 -7 11 -10 3 -10 -7 0 -12 -5 -10 -12 4 -19 30 -47 39 -42 14 9 9
-7 -11 -33 -22 -26 -19 -48 7 -58 13 -5 13 -2 -3 15 -10 11 -13 20 -7 20 7 0
12 8 13 18 0 10 3 12 6 5 2 -7 18 -13 34 -13 19 0 28 -4 24 -11 -4 -6 -13 -8
-21 -5 -8 3 -11 0 -7 -9 3 -8 9 -13 13 -10 5 3 11 1 15 -5 9 -15 25 -12 19 4
-3 7 2 16 10 19 10 4 13 1 10 -7 -4 -11 12 -25 31 -26 3 0 14 -9 25 -20 26
-26 36 -25 43 1 4 13 10 18 17 14 8 -5 9 -10 2 -14 -13 -8 6 -35 31 -44 13 -5
17 -3 15 5 -3 7 -10 13 -15 13 -6 0 -15 4 -20 9 -4 5 6 5 24 2 18 -4 34 -3 38
3 3 6 15 11 26 11 17 0 18 -3 8 -22 -11 -20 -10 -21 3 -11 8 7 18 10 22 6 4
-4 4 1 0 12 -7 20 -6 20 10 0 15 -19 17 -19 30 -2 7 9 17 17 21 17 4 0 2 -6
-4 -13 -8 -11 -6 -18 11 -33 13 -10 18 -12 12 -4 -9 12 -7 20 9 35 l20 20 -11
-21 c-12 -23 -2 -46 19 -42 8 2 13 -3 11 -10 -1 -8 2 -11 8 -7 8 5 8 11 0 20
-18 21 -3 55 25 55 6 0 3 -5 -5 -10 -11 -7 -11 -10 -2 -10 7 0 10 -6 7 -13 -4
-6 1 -3 9 7 9 11 16 14 16 7 0 -7 4 -10 9 -6 5 3 13 1 16 -5 4 -6 16 -8 27 -4
15 4 18 3 13 -6 -5 -9 -4 -11 4 -6 6 4 9 11 6 16 -3 4 2 10 10 14 8 3 15 1 15
-5 0 -6 7 -6 20 1 11 6 18 15 15 20 -4 6 7 7 26 3 23 -4 30 -3 25 5 -4 8 1 12
13 13 12 1 26 3 31 4 6 1 14 3 20 4 5 0 9 7 7 14 -1 7 6 11 16 9 9 -2 20 4 23
13 4 9 13 14 22 10 17 -6 44 13 36 27 -3 5 3 12 15 15 11 3 18 9 15 14 -3 5 4
9 14 9 12 0 22 9 26 23 3 12 9 18 13 12 11 -13 36 -18 28 -5 -6 10 7 14 33 11
6 -1 12 3 12 9 0 5 7 10 16 10 13 0 14 3 5 14 -9 11 -9 16 0 22 7 4 9 3 6 -3
-4 -6 0 -13 8 -16 10 -4 12 -1 8 10 -5 13 -3 14 16 3 23 -12 51 -7 51 9 0 5
-10 6 -22 3 -21 -5 -22 -4 -7 10 9 9 25 18 35 20 10 2 24 10 31 18 11 13 12
13 13 0 0 -8 9 0 21 19 11 18 23 30 27 27 3 -4 0 -11 -8 -16 -10 -6 -11 -10
-3 -10 14 0 35 34 27 43 -3 3 5 4 18 3 17 -2 24 2 24 16 0 10 -4 18 -9 18 -4
0 -5 5 -2 10 4 6 11 7 17 4 7 -5 9 -1 5 9 -4 11 0 15 13 14 10 -1 17 -4 14 -8
-2 -4 1 -11 7 -15 8 -4 9 -3 5 4 -4 7 -1 12 9 12 10 0 13 -5 9 -12 -4 -6 -3
-8 4 -5 8 6 10 42 1 42 -1 0 -3 10 -4 21 -2 19 2 21 26 17 15 -2 31 1 35 8 5
9 2 10 -11 5 -15 -5 -16 -4 -5 9 10 12 15 13 28 3 14 -12 14 -10 2 12 -12 22
-12 24 2 12 13 -10 17 -10 22 5 4 10 1 20 -9 25 -22 13 -10 27 17 20 14 -3 19
-2 14 6 -4 7 -17 12 -29 13 l-22 0 23 9 c12 5 22 14 22 19 0 6 7 8 15 5 10 -4
13 -13 10 -24 -6 -20 20 -36 31 -18 4 7 3 8 -4 4 -16 -10 -16 36 0 52 10 10
10 15 1 20 -8 5 -8 12 2 25 8 12 15 14 20 7 3 -5 11 -8 16 -4 5 3 7 10 4 15
-4 5 5 9 19 9 28 0 34 18 14 38 -9 9 -9 12 1 12 9 0 12 9 9 25 -4 21 -3 23 13
14 19 -10 20 -8 23 24 1 6 7 18 14 25 7 8 10 18 7 23 -4 5 -1 9 6 9 9 0 9 3 0
14 -11 14 -5 50 8 42 9 -6 6 68 -4 85 -8 12 -6 12 8 0 10 -8 21 -11 24 -7 12
11 12 40 1 53 -7 8 -7 13 0 13 6 0 4 17 -5 42 -8 22 -12 47 -9 55 3 7 1 13 -3
13 -5 0 -8 11 -7 25 2 14 -2 29 -9 35 -7 6 -11 26 -9 45 1 19 -1 35 -5 35 -4
0 -8 16 -9 35 -1 19 -6 44 -12 55 -6 11 -8 25 -5 30 3 5 0 12 -6 15 -5 4 -8
13 -5 21 3 8 1 14 -4 14 -5 0 -7 7 -4 15 4 10 0 15 -12 15 -14 0 -16 2 -6 9
17 10 17 7 -3 54 -9 21 -13 42 -10 47 4 6 2 10 -4 10 -5 0 -8 9 -6 19 2 13 -4
21 -20 25 -14 4 -24 15 -28 32 -4 21 -1 25 14 21 11 -3 22 -1 25 4 3 5 1 9 -3
9 -5 0 -10 14 -11 31 -4 45 -6 52 -21 68 -10 11 -17 12 -32 3 -25 -16 -30 -15
-23 3 4 8 10 13 14 10 4 -3 10 1 13 9 10 25 -4 54 -29 60 -29 8 -30 17 -4 41
20 18 29 62 10 50 -14 -9 -12 8 3 24 10 11 8 13 -10 8 -14 -3 -24 1 -27 10 -5
12 0 14 21 10 l28 -5 -25 20 c-24 19 -29 41 -30 120 0 15 -8 31 -17 37 -14 9
-15 12 -5 19 11 7 10 10 -3 15 -12 5 -14 11 -6 26 8 14 7 21 -2 24 -9 4 -9 7
0 14 10 7 9 15 -2 36 -7 14 -11 26 -7 26 18 -3 21 3 11 29 -15 38 -21 104 -9
97 6 -3 10 2 10 11 0 10 -3 15 -6 11 -4 -3 -13 0 -20 8 -17 17 -18 29 -1 19 8
-5 8 -2 -2 9 -11 14 -11 17 0 17 9 0 10 3 3 8 -6 4 -11 14 -12 22 0 8 -3 30
-6 48 -3 17 -1 32 4 32 5 0 2 16 -6 35 -12 30 -12 34 1 29 11 -4 13 -2 9 9 -3
9 -12 18 -20 21 -12 5 -13 10 -4 26 9 16 8 25 -1 36 -10 12 -9 13 7 8 17 -5
17 -4 2 5 -9 6 -15 20 -13 31 2 11 -1 20 -6 20 -6 0 -7 5 -3 12 5 7 8 27 9 45
0 27 -3 32 -17 27 -12 -4 -18 0 -18 11 0 12 5 15 17 11 10 -4 14 -4 10 0 -4 4
-1 14 6 23 11 14 10 14 -6 2 -16 -13 -20 -13 -27 -1 -5 8 -7 17 -4 21 2 4 0
10 -6 14 -7 4 -7 12 0 26 8 14 7 19 -1 19 -7 0 -9 10 -7 24 3 14 1 31 -3 38
-5 7 -3 16 4 20 9 6 8 8 -2 8 -11 0 -11 3 0 17 12 14 12 16 0 8 -11 -6 -13 -4
-8 10 4 9 2 24 -4 31 -9 11 -7 14 10 14 12 0 20 4 16 10 -3 5 -13 6 -22 3 -12
-5 -15 -2 -10 10 3 9 3 17 -2 17 -4 0 -7 10 -7 23 1 32 38 63 69 58 4 0 7 4 7
9 0 6 5 10 10 10 7 0 7 -8 -1 -22 -10 -18 -8 -24 7 -35 17 -12 17 -13 -1 -13
-18 0 -18 0 1 -14 10 -8 16 -18 12 -22 -4 -4 0 -13 10 -21 9 -8 11 -11 4 -8
-11 6 -11 3 -1 -13 7 -12 17 -18 23 -15 5 4 7 -1 3 -11 -9 -24 3 -42 15 -25 7
10 8 6 5 -13 -3 -19 0 -28 9 -28 8 0 14 -7 14 -16 0 -8 3 -13 8 -11 4 3 12 -1
19 -8 10 -11 10 -15 0 -18 -7 -3 -4 -6 6 -6 10 -1 15 -5 12 -11 -3 -5 0 -10 7
-10 11 0 10 -2 0 -9 -11 -7 -10 -9 3 -15 9 -3 13 -10 10 -16 -4 -6 1 -7 11 -3
14 5 16 2 12 -15 -4 -15 -1 -23 13 -27 10 -4 19 -14 19 -24 0 -10 9 -26 20
-36 11 -10 20 -23 20 -29 0 -6 -5 -4 -10 4 -8 13 -10 13 -10 -1 0 -22 26 -45
32 -27 3 7 4 -21 3 -62 0 -45 4 -86 12 -103 8 -15 13 -33 12 -40 -4 -31 2 -39
22 -34 20 5 20 5 3 -14 -15 -17 -16 -22 -4 -29 11 -7 11 -12 2 -23 -10 -12 -9
-16 3 -21 13 -5 14 -10 5 -27 -11 -19 -10 -20 12 -15 l23 7 -24 -14 c-18 -11
-20 -15 -8 -20 9 -3 13 -14 10 -30 -3 -14 0 -28 6 -31 6 -4 11 -12 11 -17 0
-6 -4 -7 -10 -4 -5 3 -10 1 -10 -4 0 -6 6 -11 13 -11 8 0 7 -4 -3 -11 -11 -8
-12 -12 -3 -16 9 -3 10 -10 3 -23 -6 -11 -6 -21 -1 -25 5 -3 12 3 14 12 4 17
5 17 6 0 0 -10 -6 -20 -14 -23 -8 -4 -15 -10 -15 -16 0 -5 5 -6 11 -3 7 5 9
-4 5 -28 -3 -20 -1 -39 4 -42 6 -3 10 -11 10 -16 0 -6 -4 -8 -8 -5 -5 3 -9 -1
-9 -9 0 -8 5 -12 10 -8 5 3 4 -4 -2 -16 -10 -17 -9 -21 5 -21 14 0 14 -2 -3
-18 -10 -9 -13 -13 -6 -8 10 7 12 4 6 -10 -3 -10 -11 -22 -17 -26 -6 -4 -5
-12 3 -22 12 -15 8 -20 -12 -17 -4 1 2 -17 13 -40 12 -23 17 -38 11 -34 -6 3
-11 -1 -11 -9 0 -9 6 -16 13 -16 8 0 7 -4 -3 -10 -13 -9 -13 -10 0 -11 9 0 7
-4 -7 -11 -21 -10 -22 -12 -5 -25 9 -8 12 -12 6 -9 -6 3 -16 -6 -22 -19 -11
-25 -6 -31 21 -26 5 1 6 -7 3 -17 -4 -13 0 -18 14 -19 11 -1 18 2 15 7 -3 4 5
6 17 2 12 -3 17 -7 10 -10 -14 -4 -16 -22 -3 -22 5 0 13 10 16 21 6 17 9 19
16 8 8 -12 10 -12 18 0 6 9 18 11 33 8 18 -5 29 0 46 21 13 15 23 30 22 35 0
11 34 44 42 40 3 -2 12 14 18 34 6 21 14 45 17 53 8 19 12 39 18 70 2 14 4 25
5 25 1 0 3 7 5 15 8 42 38 146 43 155 3 5 7 16 8 25 2 8 4 22 7 30 2 8 7 29
12 45 4 17 12 36 18 43 5 6 6 12 2 12 -4 0 -2 6 4 13 6 8 8 16 5 20 -3 3 -1
14 5 24 12 24 21 99 26 228 2 55 4 102 5 105 8 21 3 140 -5 140 -7 0 -7 3 0 8
11 8 14 83 3 75 -5 -2 -4 7 2 21 8 22 7 26 -10 26 -20 0 -33 13 -23 24 3 3 12
1 20 -5 10 -9 13 -4 11 29 -1 37 -3 40 -21 30 -13 -7 -17 -7 -13 0 4 6 -1 15
-10 20 -11 6 -16 22 -16 51 0 22 -3 41 -9 41 -5 0 -9 12 -10 28 -1 26 -1 26
-10 -5 -5 -18 -12 -33 -15 -33 -4 0 -4 6 -1 14 3 7 0 19 -6 25 -8 8 -7 11 3
11 9 0 8 5 -6 15 -10 8 -15 15 -11 15 4 0 -1 10 -13 22 -13 15 -17 25 -10 32
7 7 1 14 -18 23 -15 7 -19 11 -10 9 9 -3 19 2 22 10 3 8 2 13 -3 10 -12 -8
-39 16 -43 39 -2 11 -14 30 -28 42 -15 14 -20 22 -11 23 11 0 11 3 1 15 -6 8
-9 19 -5 25 3 6 -3 10 -17 10 -21 1 -22 2 -5 14 9 7 17 17 17 22 0 4 -5 3 -11
-3 -9 -9 -15 -8 -25 2 -8 7 -14 18 -14 23 0 6 -6 13 -12 15 -8 3 -5 6 5 6 27
1 10 21 -18 21 -12 0 -25 7 -29 15 -3 8 -1 15 4 15 6 0 10 5 10 10 0 6 -7 10
-16 10 -9 0 -18 9 -21 20 -3 11 -16 23 -29 26 -13 3 -24 12 -24 19 0 7 -34 47
-75 90 -41 42 -75 82 -75 88 0 6 -3 7 -7 4 -3 -4 -12 2 -20 13 -8 11 -21 20
-29 20 -8 0 -14 6 -14 13 0 19 -35 49 -45 40 -4 -5 -6 -1 -2 9 4 11 -1 18 -19
22 -13 4 -24 13 -24 21 0 8 -7 15 -15 15 -8 0 -15 5 -15 10 0 6 -6 10 -14 10
-7 0 -19 7 -26 15 -7 9 -15 13 -17 11 -3 -3 -16 6 -30 20 -21 21 -37 29 -46
22 -2 -3 -18 9 -52 40 -7 6 -21 12 -29 12 -9 0 -16 6 -16 13 0 21 -45 38 -60
24 -10 -9 -11 -9 -6 0 8 15 -43 43 -84 46 -20 1 -28 6 -25 15 2 6 0 12 -6 12
-5 0 -12 -7 -15 -15 -4 -8 -10 -13 -15 -10 -4 3 -5 13 -2 21 5 13 1 15 -15 9
-16 -5 -22 -2 -22 9 0 9 -4 16 -9 16 -5 0 -7 -9 -4 -20z m219 -112 c3 -4 -1
-5 -10 -4 -8 1 -18 5 -22 8 -3 4 1 5 10 4 8 -1 18 -5 22 -8z m-256 -1333 c0
-1 -11 -5 -25 -7 -20 -4 -23 -2 -14 8 8 10 39 10 39 -1z m294 -3 c2 -4 -4 -8
-14 -8 -10 0 -16 4 -14 8 3 4 9 8 14 8 5 0 11 -4 14 -8z m-285 -21 c9 -6 6 -8
-13 -8 -14 0 -23 3 -20 8 7 11 15 11 33 0z m11 -141 c13 -11 19 -20 13 -20 -5
0 -18 9 -28 20 -10 11 -16 20 -13 20 3 0 15 -9 28 -20z m267 -35 c0 -8 -4 -12
-9 -9 -4 3 -8 9 -8 15 0 5 4 9 8 9 5 0 9 -7 9 -15z m-272 -5 c3 -5 1 -10 -4
-10 -6 0 -11 5 -11 10 0 6 2 10 4 10 3 0 8 -4 11 -10z m302 -25 c0 -8 -4 -15
-9 -15 -10 0 -11 14 -1 23 9 10 10 9 10 -8z m-232 -45 c3 -6 -1 -7 -9 -4 -18
7 -21 14 -7 14 6 0 13 -4 16 -10z m-43 -15 c3 0 10 -4 15 -9 5 -5 3 -6 -4 -2
-7 4 -13 2 -13 -3 0 -19 -17 -12 -23 9 -3 14 -1 18 6 13 7 -4 15 -8 19 -8z
m45 -100 c0 -8 -4 -12 -9 -9 -5 3 -6 10 -3 15 9 13 12 11 12 -6z m93 -35 c0
-5 -5 -10 -11 -10 -5 0 -7 5 -4 10 3 6 8 10 11 10 2 0 4 -4 4 -10z m-110 -140
c0 -5 -2 -10 -4 -10 -3 0 -8 5 -11 10 -3 6 -1 10 4 10 6 0 11 -4 11 -10z m30
6 c0 -3 -4 -8 -10 -11 -5 -3 -10 -1 -10 4 0 6 5 11 10 11 6 0 10 -2 10 -4z
m41 -43 c13 -17 13 -17 -6 -3 -11 8 -22 16 -24 17 -2 2 0 3 6 3 6 0 17 -8 24
-17z m224 -3 c3 -5 2 -10 -4 -10 -5 0 -13 5 -16 10 -3 6 -2 10 4 10 5 0 13 -4
16 -10z m-255 -72 c0 -4 -4 -8 -9 -8 -6 0 -12 4 -15 8 -3 5 1 9 9 9 8 0 15 -4
15 -9z m28 -190 c-2 -7 2 -12 7 -11 6 1 12 -8 12 -20 2 -20 1 -20 -8 -4 -6 9
-17 17 -24 17 -26 0 -17 20 13 29 1 1 1 -5 0 -11z m39 -30 c-3 -8 -6 -5 -6 6
-1 11 2 17 5 13 3 -3 4 -12 1 -19z m-50 -180 c-3 -8 -6 -5 -6 6 -1 11 2 17 5
13 3 -3 4 -12 1 -19z m71 -20 c7 -7 12 -21 12 -31 0 -16 -3 -17 -14 -8 -16 13
-32 -1 -21 -19 3 -5 0 -7 -9 -4 -20 8 -10 32 17 40 20 6 20 7 2 20 -10 8 -14
14 -9 14 6 0 15 -5 22 -12z m456 -133 c4 -10 -1 -15 -16 -15 -17 0 -18 2 -8
15 7 8 14 15 15 15 2 0 5 -7 9 -15z m11 -75 c3 -5 1 -10 -4 -10 -6 0 -11 5
-11 10 0 6 2 10 4 10 3 0 8 -4 11 -10z m-1292 -467 c-7 -2 -19 -2 -25 0 -7 3
-2 5 12 5 14 0 19 -2 13 -5z m-68 -33 c3 -5 1 -10 -4 -10 -6 0 -11 5 -11 10 0
6 2 10 4 10 3 0 8 -4 11 -10z m-75 -44 c0 -2 -7 -7 -16 -10 -8 -3 -12 -2 -9 4
6 10 25 14 25 6z m-43 -31 c0 -8 -6 -15 -14 -15 -14 0 -17 12 -6 23 11 11 20
8 20 -8z m1633 -185 c0 -5 -4 -10 -10 -10 -5 0 -10 5 -10 10 0 6 5 10 10 10 6
0 10 -4 10 -10z m-23 -64 c-3 -7 -1 -18 5 -24 13 -13 -4 -23 -22 -11 -10 5
-10 9 -3 9 6 0 10 9 8 20 -2 11 1 20 7 20 5 0 8 -6 5 -14z m-57 -80 c0 -2 -8
-10 -17 -17 -16 -13 -17 -12 -4 4 13 16 21 21 21 13z m5 -86 c-3 -5 -14 -10
-23 -9 -14 0 -13 2 3 9 27 11 27 11 20 0z m-85 -90 c0 -5 -5 -10 -11 -10 -5 0
-7 5 -4 10 3 6 8 10 11 10 2 0 4 -4 4 -10z m-125 -129 c3 -5 1 -12 -5 -16 -5
-3 -10 1 -10 9 0 18 6 21 15 7z m-1575 -31 c0 -5 -5 -10 -11 -10 -5 0 -7 5 -4
10 3 6 8 10 11 10 2 0 4 -4 4 -10z m1035 -400 c3 -5 1 -10 -4 -10 -6 0 -11 5
-11 10 0 6 2 10 4 10 3 0 8 -4 11 -10z m-720 -58 c-3 -3 -11 0 -18 7 -9 10 -8
11 6 5 10 -3 15 -9 12 -12z m505 -15 c0 -11 -1 -18 -3 -16 -1 2 -8 11 -15 20
-9 13 -9 16 3 16 8 0 15 -9 15 -20z m-474 -24 c-3 -4 -6 -1 -6 6 0 7 -4 9 -10
6 -6 -4 -7 1 -3 11 6 15 7 15 15 -1 6 -9 7 -19 4 -22z m284 -29 c0 -8 -5 -12
-10 -9 -6 4 -8 11 -5 16 9 14 15 11 15 -7z"/>
<path d="M2556 4598 c3 -5 10 -6 15 -3 13 9 11 12 -6 12 -8 0 -12 -4 -9 -9z"/>
<path d="M1714 4326 c-19 -21 -34 -54 -34 -75 0 -13 -7 -21 -17 -21 -14 0 -15
-2 -5 -9 11 -6 6 -14 -18 -31 -17 -12 -29 -24 -26 -27 2 -3 -4 -24 -14 -47
-15 -36 -27 -84 -35 -146 -1 -8 -11 -33 -21 -55 -10 -22 -18 -42 -19 -45 -4
-16 -51 -106 -58 -111 -5 -3 -7 -8 -6 -10 1 -2 -3 -20 -11 -39 -7 -19 -12 -38
-11 -42 0 -5 -3 -8 -9 -8 -14 0 -12 -37 3 -44 6 -3 1 -3 -12 0 -17 4 -21 3
-16 -6 4 -7 3 -15 -3 -19 -5 -3 -12 -15 -14 -26 -1 -11 -6 -22 -10 -25 -4 -3
-9 -15 -11 -25 -2 -11 -7 -28 -12 -37 -4 -10 -5 -25 -1 -33 3 -8 -1 -18 -8
-22 -7 -5 -20 -28 -30 -52 -13 -34 -14 -46 -5 -58 10 -11 8 -15 -9 -20 -12 -3
-19 -9 -16 -14 3 -5 -1 -9 -8 -9 -7 -1 -3 -9 11 -20 22 -19 22 -20 3 -20 -13
0 -26 -12 -37 -35 -16 -35 -16 -36 6 -54 16 -12 19 -20 10 -25 -7 -5 -10 -2
-9 5 2 7 -5 14 -14 17 -13 2 -20 -8 -29 -40 -7 -24 -11 -53 -11 -66 1 -12 -5
-25 -12 -28 -8 -3 -17 -12 -20 -20 -3 -8 -1 -12 4 -9 6 3 7 -1 4 -9 -3 -9 -11
-13 -16 -10 -7 5 -9 -4 -6 -23 l4 -30 -40 9 c-23 5 -48 11 -56 14 -8 4 -61 6
-117 6 -72 0 -103 3 -103 11 0 8 -3 8 -8 2 -4 -5 -51 -11 -105 -12 -55 -1
-104 -7 -112 -13 -10 -8 -15 -8 -20 0 -5 8 -13 6 -26 -6 -19 -17 -20 -17 -13
2 7 19 7 19 -14 0 -12 -11 -22 -14 -22 -8 0 7 -5 12 -10 12 -6 0 -9 -3 -8 -7
2 -5 -1 -9 -6 -10 -5 -1 -13 -7 -17 -15 -8 -11 -10 -11 -18 0 -6 10 -10 8 -14
-8 -4 -14 -11 -21 -20 -17 -19 7 -42 -9 -42 -30 -1 -10 -6 -17 -13 -16 -6 2
-17 -7 -23 -20 -7 -12 -20 -29 -29 -37 -10 -8 -16 -25 -14 -38 3 -14 0 -21 -6
-17 -5 3 -11 3 -11 -2 -1 -4 -3 -24 -5 -43 -2 -19 -9 -39 -14 -44 -6 -6 -10
-15 -10 -20 0 -6 5 -4 10 4 6 9 10 10 10 3 0 -6 -7 -18 -15 -26 -8 -8 -11 -18
-7 -22 4 -5 -1 -5 -10 -2 -12 4 -15 2 -11 -9 3 -7 11 -14 18 -14 26 0 26 -20
1 -30 -29 -11 -34 -27 -10 -32 19 -4 29 -58 11 -58 -7 0 -4 -5 7 -11 15 -9 16
-13 5 -20 -12 -7 -12 -9 0 -9 18 0 61 -46 52 -56 -3 -4 3 -4 14 0 11 4 16 4
12 0 -4 -4 1 -13 11 -21 10 -9 11 -12 2 -7 -8 4 -12 3 -7 -2 4 -4 18 -9 30 -9
14 0 22 -6 21 -16 -1 -14 4 -15 27 -9 22 7 27 5 22 -6 -3 -9 2 -14 16 -14 12
0 21 -3 21 -7 0 -8 48 -33 63 -33 4 0 6 4 2 9 -3 5 0 13 6 17 7 4 9 3 6 -3
-13 -20 18 -30 83 -26 36 2 83 5 105 6 22 1 46 6 54 11 10 7 12 6 6 -4 -6 -10
-4 -12 7 -7 9 3 21 0 28 -6 10 -9 11 -9 6 1 -5 8 0 12 13 13 12 1 27 2 34 3 6
1 18 -3 26 -8 11 -8 13 -8 7 2 -5 8 0 12 13 12 12 0 21 5 21 10 0 6 9 10 21
10 15 0 19 -5 15 -16 -3 -9 -2 -12 5 -8 6 3 8 15 6 26 -3 11 -3 17 0 14 4 -3
12 -1 20 6 8 6 13 7 11 2 -2 -5 2 -9 7 -9 6 0 9 3 8 6 -1 4 6 5 16 2 10 -3 22
1 26 8 5 8 4 10 -3 5 -7 -4 -12 -3 -12 2 0 6 7 13 16 16 23 9 27 8 21 -9 -4
-8 -2 -17 4 -20 5 -4 8 -1 7 7 -2 8 7 13 25 12 15 -1 25 2 21 5 -5 6 -9 7 -36
10 -26 3 13 18 42 16 23 -1 28 2 25 17 -2 10 0 16 6 13 5 -4 9 0 9 7 0 11 2
11 9 0 6 -10 10 -10 20 2 7 8 10 20 6 27 -6 8 -2 8 13 0 18 -10 20 -8 18 14
-2 13 1 22 5 19 5 -3 12 1 15 10 3 8 12 12 20 9 8 -3 14 -2 13 3 -1 5 0 16 3
24 7 19 33 105 43 145 5 17 7 36 6 43 -1 6 2 12 6 12 9 0 15 31 17 83 1 15 4
27 9 27 13 0 8 23 -10 43 -10 11 -12 17 -6 13 7 -4 21 -2 30 3 10 6 14 11 9
11 -5 0 -3 6 3 14 9 11 8 17 -4 29 -10 11 -11 17 -3 19 15 5 20 38 5 38 -6 0
-1 9 12 21 12 12 20 28 17 36 -4 8 -2 11 5 7 8 -4 9 1 4 15 -4 13 -1 28 5 37
7 8 14 28 16 44 2 17 11 44 19 60 8 16 15 32 15 35 0 3 6 18 13 33 14 27 32
100 28 115 -1 5 3 6 8 3 8 -5 25 28 23 44 0 3 4 10 10 17 5 7 6 18 2 24 -4 7
-3 9 4 5 11 -6 28 47 23 73 -1 7 2 10 8 6 6 -3 9 0 6 7 -7 18 21 97 42 120 10
12 12 18 4 18 -24 0 19 44 44 46 17 0 22 -3 16 -10 -13 -16 -17 -49 -7 -65 6
-10 5 -12 -3 -7 -8 6 -10 -4 -5 -36 3 -24 7 -62 8 -86 2 -23 5 -45 9 -48 3 -3
3 -13 0 -21 -3 -8 -6 -29 -7 -46 -1 -18 -7 -42 -13 -53 -7 -12 -9 -24 -6 -28
3 -3 2 -6 -3 -6 -5 0 -10 -17 -12 -37 -1 -20 -7 -40 -13 -44 -7 -4 -8 -12 -5
-18 4 -6 2 -11 -5 -11 -7 0 -9 -3 -6 -7 4 -3 2 -12 -4 -20 -6 -7 -8 -13 -5
-13 4 0 1 -10 -6 -22 -7 -13 -11 -29 -9 -37 1 -8 -2 -10 -10 -5 -9 5 -10 2 -6
-9 3 -10 3 -17 -2 -17 -7 0 -25 -44 -18 -45 1 -1 -10 -13 -25 -28 -16 -16 -28
-37 -28 -47 0 -11 -5 -20 -12 -20 -6 0 -8 -3 -5 -7 4 -3 -5 -17 -19 -30 -14
-12 -20 -23 -13 -23 7 0 9 -3 6 -7 -11 -11 14 -33 38 -33 13 0 25 -6 28 -12 3
-10 7 -10 19 -1 8 7 18 10 21 6 4 -3 7 -1 7 5 0 7 8 12 18 12 10 0 43 28 74
63 31 34 80 87 109 118 53 56 99 108 99 114 0 1 25 46 55 99 30 53 52 96 49
96 -2 0 2 10 11 23 8 13 12 27 8 30 -3 4 0 7 8 7 10 1 9 4 -4 11 -9 6 -15 15
-11 20 3 5 10 23 14 40 8 28 7 29 -7 17 -10 -7 -14 -8 -10 -1 4 6 8 30 9 52 1
23 6 41 12 41 7 0 7 3 -1 8 -7 4 -11 28 -9 60 1 30 -2 56 -6 58 -5 3 -5 11 -1
17 12 19 12 38 0 30 -6 -4 -8 -1 -5 8 3 8 1 25 -5 39 -5 14 -12 36 -14 48 -14
83 -90 278 -120 310 -7 7 -13 18 -13 23 0 5 -5 15 -10 22 -6 7 -24 31 -41 55
-17 25 -34 40 -41 36 -7 -5 -8 -3 -4 5 5 8 0 14 -14 18 -14 4 -18 8 -10 13 6
4 -6 6 -27 6 -25 -1 -43 4 -53 15 -12 14 -17 15 -26 5z m-351 -925 c-5 -20
-33 -38 -33 -21 0 8 28 40 35 40 2 0 1 -9 -2 -19z m-100 -371 c-3 -12 -8 -19
-11 -16 -5 6 5 36 12 36 2 0 2 -9 -1 -20z"/>
<path d="M3730 4100 c0 -5 5 -10 10 -10 6 0 10 5 10 10 0 6 -4 10 -10 10 -5 0
-10 -4 -10 -10z"/>
<path d="M3236 3753 c-6 -14 -5 -15 5 -6 7 7 10 15 7 18 -3 3 -9 -2 -12 -12z"/>
<path d="M2786 2904 c-4 -9 -4 -19 -1 -22 3 -3 5 0 5 7 0 7 4 9 10 6 6 -3 7 1
4 9 -8 20 -10 20 -18 0z"/>
<path d="M1767 1326 c-4 -10 0 -14 13 -13 14 1 16 4 8 14 -13 16 -15 16 -21
-1z"/>
<path d="M3469 985 c-1 -3 -2 -8 -3 -12 -1 -5 -5 -15 -10 -23 -5 -8 -5 -12 -1
-7 5 4 16 0 25 -8 14 -13 17 -13 17 -1 0 8 -5 14 -11 13 -13 -3 -15 26 -1 35
6 5 6 8 -2 8 -7 0 -14 -2 -14 -5z"/>
<path d="M1715 741 c-3 -6 3 -9 14 -8 11 0 17 5 15 9 -7 11 -22 10 -29 -1z"/>
<path d="M1835 420 c3 -5 8 -10 11 -10 2 0 4 5 4 10 0 6 -5 10 -11 10 -5 0 -7
-4 -4 -10z"/>
<path d="M2180 285 c-7 -9 -10 -18 -7 -21 3 -3 10 4 17 15 13 25 8 27 -10 6z"/>
<path d="M2042 275 c-11 -12 -10 -15 3 -15 8 0 15 7 15 15 0 18 -2 18 -18 0z"/>
<path d="M2255 259 c-3 -4 2 -6 10 -5 21 3 28 13 10 13 -9 0 -18 -4 -20 -8z"/>
</g>
</svg>
